<?xml version="1.0" encoding="UTF-8" standalone="no"?>
<svg
   xmlns:dc="http://purl.org/dc/elements/1.1/"
   xmlns:cc="http://creativecommons.org/ns#"
   xmlns:rdf="http://www.w3.org/1999/02/22-rdf-syntax-ns#"
   xmlns:svg="http://www.w3.org/2000/svg"
   xmlns="http://www.w3.org/2000/svg"
   xmlns:xlink="http://www.w3.org/1999/xlink"
   xmlns:sodipodi="http://sodipodi.sourceforge.net/DTD/sodipodi-0.dtd"
   xmlns:inkscape="http://www.inkscape.org/namespaces/inkscape"
   width="256"
   height="256"
   viewBox="0 0 67.733332 67.733335"
   version="1.1"
   id="svg8"
   inkscape:version="1.0.2 (e86c870879, 2021-01-15)"
   sodipodi:docname="va_transparent.svg"
   inkscape:export-filename="/home/xfnw/Pictures/va_transparent.png"
   inkscape:export-xdpi="96"
   inkscape:export-ydpi="96">
  <defs
     id="defs2">
    <inkscape:path-effect
       effect="bspline"
       id="path-effect904"
       is_visible="true"
       lpeversion="1"
       weight="33.333333"
       steps="2"
       helper_size="0"
       apply_no_weight="true"
       apply_with_weight="true"
       only_selected="false" />
    <linearGradient
       inkscape:collect="always"
       id="linearGradient887">
      <stop
         style="stop-color:#ff7904;stop-opacity:1;"
         offset="0"
         id="stop883" />
      <stop
         style="stop-color:#ffe207;stop-opacity:1"
         offset="1"
         id="stop885" />
    </linearGradient>
    <rect
       x="14.002004"
       y="25.54486"
       width="39.618077"
       height="28.060878"
       id="rect12" />
    <linearGradient
       inkscape:collect="always"
       xlink:href="#linearGradient887"
       id="linearGradient889"
       x1="13.641252"
       y1="30.863142"
       x2="27.443558"
       y2="36.65266"
       gradientUnits="userSpaceOnUse" />
    <linearGradient
       inkscape:collect="always"
       xlink:href="#linearGradient887"
       id="linearGradient897"
       x1="28.273651"
       y1="41.015846"
       x2="13.63581"
       y2="28.950884"
       gradientUnits="userSpaceOnUse" />
  </defs>
  <sodipodi:namedview
     id="base"
     pagecolor="#ffffff"
     bordercolor="#666666"
     borderopacity="1.0"
     inkscape:pageopacity="0.0"
     inkscape:pageshadow="2"
     inkscape:zoom="2.0521539"
     inkscape:cx="74.524373"
     inkscape:cy="142.06708"
     inkscape:document-units="px"
     inkscape:current-layer="layer1"
     inkscape:document-rotation="0"
     showgrid="false"
     units="px"
     inkscape:window-width="1366"
     inkscape:window-height="751"
     inkscape:window-x="0"
     inkscape:window-y="0"
     inkscape:window-maximized="0" />
  <metadata
     id="metadata5">
    <rdf:RDF>
      <cc:Work
         rdf:about="">
        <dc:format>image/svg+xml</dc:format>
        <dc:type
           rdf:resource="http://purl.org/dc/dcmitype/StillImage" />
        <dc:title></dc:title>
      </cc:Work>
    </rdf:RDF>
  </metadata>
  <g
     inkscape:label="Layer 1"
     inkscape:groupmode="layer"
     id="layer1">
    <text
       xml:space="preserve"
       id="text10"
       style="font-style:normal;font-weight:normal;font-size:10.5833px;line-height:1.25;font-family:sans-serif;white-space:pre;shape-inside:url(#rect12);opacity:1;mix-blend-mode:normal;fill:url(#linearGradient889);fill-opacity:1;stroke:url(#linearGradient897);stroke-width:0.216828;stroke-miterlimit:4;stroke-dasharray:none;stroke-opacity:1;"
       transform="matrix(4.8809713,0,0,4.8809713,-67.520408,-127.31796)"><tspan
         x="14.001953"
         y="36.50592"><tspan
           style="font-style:normal;font-variant:normal;font-weight:normal;font-stretch:normal;font-family:'Permanent Marker';-inkscape-font-specification:'Permanent Marker';fill:url(#linearGradient889);fill-opacity:1;stroke:url(#linearGradient897);stroke-width:0.216828;stroke-miterlimit:4;stroke-dasharray:none;stroke-opacity:1">VA</tspan></tspan></text>
    <path
       style="fill:#f2f2f2;stroke:none;stroke-width:0.264583px;stroke-linecap:butt;stroke-linejoin:miter;stroke-opacity:1;fill-opacity:1"
       d="m 53.757425,43.790569 c 0,0 2.491046,-1.760023 2.491046,-1.760023 0,0 0.755407,2.969774 0.755407,2.969774 0,0 2.42049,-2.17895 2.42049,-2.17895 0,0 1.443699,3.451415 1.443699,3.451415 -0.604384,0.755408 -1.208793,1.510847 -1.619156,2.001782 -0.410362,0.490936 -0.626715,0.717417 -0.894045,0.943092 -0.267329,0.225676 -0.585675,0.450576 -0.847339,0.619344 -0.261665,0.168767 -0.466672,0.281406 -0.789823,0.415112 -0.323152,0.133706 -0.764487,0.288474 -1.115525,0.377209 -0.351038,0.08873 -0.611842,0.111397 -0.826765,0.120013 -0.214923,0.0086 -0.383984,0.0032 -0.573239,-0.05225 -0.189256,-0.05541 -0.39874,-0.160901 -0.63938,-0.310502 -0.24064,-0.149602 -0.512406,-0.343353 -0.754628,-0.485206 -0.242221,-0.141853 -0.454897,-0.231719 -0.562589,-0.293407 -0.107693,-0.06169 -0.110093,-0.09534 -0.1222,-0.09478 -0.01211,5.6e-4 -0.03386,0.03555 -0.0083,-0.04291 0.02561,-0.07846 0.09858,-0.270429 0.137238,-0.4316 0.03865,-0.161171 0.04294,-0.291642 0.0084,-0.458013 -0.03453,-0.166371 -0.107986,-0.368687 -0.300302,-0.622474 -0.192316,-0.253788 -0.503626,-0.558972 -0.809194,-0.885294 -0.305567,-0.326323 -0.605354,-0.673787 -0.760962,-0.854912 -0.155608,-0.181125 -0.167003,-0.195898 -0.171012,-0.204109 -0.004,-0.0082 -6.88e-4,-0.0095 0.01759,-0.01421 0.01827,-0.0048 0.05142,-0.01301 0.227661,-0.05998 0.176237,-0.04697 0.495551,-0.132645 0.804124,-0.229533 0.308572,-0.09689 0.606421,-0.204977 0.76431,-0.26006 0.157888,-0.05508 0.175708,-0.05718 0.297991,-0.125241 0.122283,-0.06806 0.349174,-0.20205 0.543695,-0.342604 0.194522,-0.140553 0.35673,-0.287694 0.473654,-0.431061 0.116923,-0.143368 0.188624,-0.283071 0.249262,-0.409208 0.06064,-0.126137 0.110264,-0.238841 0.159837,-0.351425 z"
       id="path902"
       inkscape:path-effect="#path-effect904"
       inkscape:original-d="m 53.757425,43.790569 2.491046,-1.760023 0.755407,2.969774 2.42049,-2.17895 1.443699,3.451415 c 0,0 -1.208505,1.511078 -1.813152,2.266223 -0.216096,0.226753 -0.432449,0.453234 -0.649068,0.679452 -0.318096,0.225177 -0.636442,0.450078 -0.955061,0.674717 -0.204751,0.112908 -0.409758,0.225547 -0.615032,0.337923 -0.44109,0.155041 -0.882425,0.309809 -1.324036,0.464315 -0.260551,0.02294 -0.521356,0.04559 -0.782434,0.06799 -0.168801,-0.0052 -0.337862,-0.01066 -0.50719,-0.01638 -0.209228,-0.105235 -0.418711,-0.210733 -0.628462,-0.316494 -0.271513,-0.193496 -0.54328,-0.387245 -0.815314,-0.581266 -0.212426,-0.08961 -0.425103,-0.179472 -0.638053,-0.269608 -0.0021,-0.03339 -0.0045,-0.06704 -0.0072,-0.100954 -0.02148,0.03525 -0.04324,0.07024 -0.06526,0.104962 0.07325,-0.191711 0.14622,-0.383682 0.218932,-0.575921 0.0046,-0.130214 0.0088,-0.260688 0.01286,-0.39143 -0.0732,-0.202062 -0.146658,-0.404378 -0.220385,-0.606964 -0.311057,-0.304933 -0.622368,-0.610116 -0.933947,-0.91557 -0.299532,-0.347212 -0.599318,-0.694677 -0.899374,-1.04241 -0.01114,-0.01453 -0.02254,-0.0293 -0.0342,-0.04434 0.0037,-0.0011 0.007,-0.0024 0.01013,-0.0038 0.03342,-0.008 0.06657,-0.01625 0.09946,-0.02477 0.319591,-0.08542 0.638906,-0.171091 0.957959,-0.257033 0.298124,-0.107828 0.595974,-0.215915 0.893561,-0.324273 0.0181,-0.0019 0.03592,-0.004 0.05348,-0.0063 0.227163,-0.133734 0.454054,-0.267726 0.680683,-0.401984 0.162481,-0.146883 0.324689,-0.294024 0.486635,-0.441431 0.07197,-0.139441 0.143668,-0.279145 0.215107,-0.419119 0.04984,-0.112322 0.148719,-0.337751 0.148719,-0.337751 z"
       sodipodi:nodetypes="ccccccccccccccccccccccccccccccccc" />
  </g>
</svg>
